
****** Harry.Brown.2009.DVDRiP.x264.AC3.NORDIC.mkv.Zen_Bud ******

Format                           : Matroska
File size                        : 795 MiB
Duration                         : 1h 38mn
Overall bit rate                 : 1 128 Kbps
Writing application              : HandBrake svn3523
Writing library                  : libmkv 0.6.4.1

Video

Format                           : AVC
Duration                         : 1h 38mn
Bit rate                         : 658 Kbps
Width                            : 720 pixels
Height                           : 434 pixels
Display aspect ratio             : 2.35:1
Stream size                      : 464 MiB (58%)
Writing library                  : x264 core 104

Audio

Format                           : AC-3
Duration                         : 1h 38mn
Bit rate                         : 448 Kbps
Channel(s)                       : 6 channels
Channel positions                : Front: L C R, Side: L R, LFE
Sampling rate                    : 48.0 KHz
Bit depth                        : 16 bits
Stream size                      : 316 MiB (40%)
Language                         : English

Text #1
Language                         : Danish

Text #2
Language                         : Swedish

Text #3
Language                         : Norwegian

Text #4
Language                         : Finnish

Menu
00:00:00.000                     : Chapter  1
00:10:00.000                     : Chapter  2

